<?xml version="1.0" encoding="utf-8"?>
<!-- Generated by Mocodo 4.2.1 -->
<svg width="574" height="458" viewBox="0 0 574 458" xmlns="http://www.w3.org/2000/svg">
<rect x="0" y="0" width="574" height="458" fill="#ffffff" stroke="none" stroke-width="0"/>

<!-- Association TO_BELONG -->
<g>
	<line x1="351" y1="102" x2="198" y2="102" stroke="#878787" stroke-width="2"/>
	<line x1="66" y1="102" x2="198" y2="102" stroke="#878787" stroke-width="2"/>
	<g>
		<path d="M227 77 a14 14 90 0 1 14 14 V102 h-86 V91 a14 14 90 0 1 14 -14" fill="#bababa" stroke="#bababa" stroke-width="0"/>
		<path d="M241 102 v11 a14 14 90 0 1 -14 14 H169 a14 14 90 0 1 -14 -14 V102 H86" fill="#e0e0e0" stroke="#e0e0e0" stroke-width="0"/>
		<rect x="155" y="77" width="86" height="50" fill="none" rx="14" stroke="#878787" stroke-width="2"/>
		<line x1="155" y1="102" x2="241" y2="102" stroke="#878787" stroke-width="1"/>
		<text x="162" y="94.75" fill="#000000" font-family="Verdana" font-size="12">TO BELONG</text>
	</g>
	<text x="246" y="119" fill="#b2182b" font-family="Verdana" font-size="12">1,N</text>
	<text x="128" y="119" fill="#b2182b" font-family="Verdana" font-size="12">0,N</text>
</g>

<!-- Association TO_APPERTAIN -->
<g>
	<line x1="351" y1="102" x2="513" y2="102" stroke="#878787" stroke-width="2"/>
	<line x1="513" y1="254" x2="513" y2="102" stroke="#878787" stroke-width="2"/>
	<g>
		<path d="M551 77 a14 14 90 0 1 14 14 V102 h-104 V91 a14 14 90 0 1 14 -14" fill="#bababa" stroke="#bababa" stroke-width="0"/>
		<path d="M565 102 v11 a14 14 90 0 1 -14 14 H475 a14 14 90 0 1 -14 -14 V102 H104" fill="#e0e0e0" stroke="#e0e0e0" stroke-width="0"/>
		<rect x="461" y="77" width="104" height="50" fill="none" rx="14" stroke="#878787" stroke-width="2"/>
		<line x1="461" y1="102" x2="565" y2="102" stroke="#878787" stroke-width="1"/>
		<text x="468" y="94.75" fill="#000000" font-family="Verdana" font-size="12">TO APPERTAIN</text>
	</g>
	<text x="434" y="119" fill="#b2182b" font-family="Verdana" font-size="12">0,N</text>
	<text x="518" y="212" fill="#b2182b" font-family="Verdana" font-size="12">0,N</text>
</g>

<!-- Association TO_HAVE -->
<g>
	<line x1="66" y1="381" x2="66" y2="254" stroke="#878787" stroke-width="2"/>
	<line x1="198" y1="254" x2="66" y2="254" stroke="#878787" stroke-width="2"/>
	<g>
		<path d="M87 229 a14 14 90 0 1 14 14 V254 h-70 V243 a14 14 90 0 1 14 -14" fill="#bababa" stroke="#bababa" stroke-width="0"/>
		<path d="M101 254 v11 a14 14 90 0 1 -14 14 H45 a14 14 90 0 1 -14 -14 V254 H70" fill="#e0e0e0" stroke="#e0e0e0" stroke-width="0"/>
		<rect x="31" y="229" width="70" height="50" fill="none" rx="14" stroke="#878787" stroke-width="2"/>
		<line x1="31" y1="254" x2="101" y2="254" stroke="#878787" stroke-width="1"/>
		<text x="39" y="246.75" fill="#000000" font-family="Verdana" font-size="12">TO HAVE</text>
	</g>
	<text x="71" y="305" fill="#b2182b" font-family="Verdana" font-size="12">0,N</text>
	<text x="121" y="271" fill="#b2182b" font-family="Verdana" font-size="12">1,1</text>
</g>

<!-- Association TO_CONTAIN -->
<g>
	<line x1="351" y1="102" x2="351" y2="254" stroke="#878787" stroke-width="2"/>
	<line x1="198" y1="254" x2="351" y2="254" stroke="#878787" stroke-width="2"/>
	<g>
		<path d="M392 229 a14 14 90 0 1 14 14 V254 h-110 V243 a14 14 90 0 1 14 -14" fill="#bababa" stroke="#bababa" stroke-width="0"/>
		<path d="M406 254 v11 a14 14 90 0 1 -14 14 H310 a14 14 90 0 1 -14 -14 V254 H110" fill="#e0e0e0" stroke="#e0e0e0" stroke-width="0"/>
		<rect x="296" y="229" width="110" height="50" fill="none" rx="14" stroke="#878787" stroke-width="2"/>
		<line x1="296" y1="254" x2="406" y2="254" stroke="#878787" stroke-width="1"/>
		<text x="312" y="246.75" fill="#000000" font-family="Verdana" font-size="12">TO CONTAIN</text>
		<text x="303" y="271.8" fill="#000000" font-family="Verdana" font-size="12">article_quantity</text>
	</g>
	<text x="356" y="212" fill="#b2182b" font-family="Verdana" font-size="12">1,N</text>
	<text x="254" y="271" fill="#b2182b" font-family="Verdana" font-size="12">0,N</text>
</g>

<!-- Association TO_PAY -->
<g>
	<line x1="351" y1="381" x2="198" y2="381" stroke="#878787" stroke-width="2"/>
	<line x1="66" y1="381" x2="198" y2="381" stroke="#878787" stroke-width="2"/>
	<g>
		<path d="M214 356 a14 14 90 0 1 14 14 V381 h-60 V370 a14 14 90 0 1 14 -14" fill="#bababa" stroke="#bababa" stroke-width="0"/>
		<path d="M228 381 v11 a14 14 90 0 1 -14 14 H182 a14 14 90 0 1 -14 -14 V381 H60" fill="#e0e0e0" stroke="#e0e0e0" stroke-width="0"/>
		<rect x="168" y="356" width="60" height="50" fill="none" rx="14" stroke="#878787" stroke-width="2"/>
		<line x1="168" y1="381" x2="228" y2="381" stroke="#878787" stroke-width="1"/>
		<text x="176" y="373.75" fill="#000000" font-family="Verdana" font-size="12">TO PAY</text>
		<text x="175" y="398.8" fill="#000000" font-family="Verdana" font-size="12">paid_at</text>
	</g>
	<text x="268" y="398" fill="#b2182b" font-family="Verdana" font-size="12">1,1</text>
	<text x="121" y="398" fill="#b2182b" font-family="Verdana" font-size="12">0,N</text>
</g>

<!-- Entity CATEGORY -->
<g>
	<g>
		<rect x="9" y="68" width="114" height="25" fill="#f4a582" stroke="none" stroke-width="0" opacity="1"/>
		<rect x="9" y="93" width="114" height="43" fill="#fddbc7" stroke="none" stroke-width="0" opacity="1"/>
		<rect x="9" y="68" width="114" height="68" fill="none" stroke="#d6604d" stroke-width="2" opacity="1"/>
		<line x1="9" y1="93" x2="123" y2="93" stroke="#d6604d" stroke-width="1"/>
	</g>
	<text x="33" y="85.75" fill="#000000" font-family="Verdana" font-size="12">CATEGORY</text>
	<text x="14" y="110.8" fill="#000000" font-family="Verdana" font-size="12">title</text>
	<line x1="14" y1="113" x2="38" y2="113" stroke="#000000" stroke-width="1"/>
	<text x="14" y="127.8" fill="#000000" font-family="Verdana" font-size="12">display_category</text>
</g>

<!-- Entity ARTICLE -->
<g>
	<g>
		<rect x="273" y="9" width="156" height="25" fill="#f4a582" stroke="none" stroke-width="0" opacity="1"/>
		<rect x="273" y="34" width="156" height="161" fill="#fddbc7" stroke="none" stroke-width="0" opacity="1"/>
		<rect x="273" y="9" width="156" height="186" fill="none" stroke="#d6604d" stroke-width="2" opacity="1"/>
		<line x1="273" y1="34" x2="429" y2="34" stroke="#d6604d" stroke-width="1"/>
	</g>
	<text x="325" y="26.75" fill="#000000" font-family="Verdana" font-size="12">ARTICLE</text>
	<text x="278" y="51.8" fill="#000000" font-family="Verdana" font-size="12">name</text>
	<line x1="278" y1="54" x2="313" y2="54" stroke="#000000" stroke-width="1"/>
	<text x="278" y="68.8" fill="#000000" font-family="Verdana" font-size="12">img</text>
	<text x="278" y="85.8" fill="#000000" font-family="Verdana" font-size="12">type</text>
	<text x="278" y="102.8" fill="#000000" font-family="Verdana" font-size="12">description</text>
	<text x="278" y="119.8" fill="#000000" font-family="Verdana" font-size="12">size</text>
	<text x="278" y="136.8" fill="#000000" font-family="Verdana" font-size="12">stock quantity</text>
	<text x="278" y="153.8" fill="#000000" font-family="Verdana" font-size="12">article price</text>
	<text x="278" y="170.8" fill="#000000" font-family="Verdana" font-size="12">display_stock_article</text>
	<text x="278" y="187.8" fill="#000000" font-family="Verdana" font-size="12">display_featured_article</text>
</g>

<!-- Entity CART -->
<g>
	<g>
		<rect x="147" y="220" width="102" height="25" fill="#f4a582" stroke="none" stroke-width="0" opacity="1"/>
		<rect x="147" y="245" width="102" height="43" fill="#fddbc7" stroke="none" stroke-width="0" opacity="1"/>
		<rect x="147" y="220" width="102" height="68" fill="none" stroke="#d6604d" stroke-width="2" opacity="1"/>
		<line x1="147" y1="245" x2="249" y2="245" stroke="#d6604d" stroke-width="1"/>
	</g>
	<text x="182" y="237.75" fill="#000000" font-family="Verdana" font-size="12">CART</text>
	<text x="152" y="262.8" fill="#000000" font-family="Verdana" font-size="12">cart_reference</text>
	<line x1="152" y1="265" x2="241" y2="265" stroke="#000000" stroke-width="1"/>
	<text x="152" y="279.8" fill="#000000" font-family="Verdana" font-size="12">user_reference</text>
</g>

<!-- Entity EVENT -->
<g>
	<g>
		<rect x="465" y="220" width="96" height="25" fill="#f4a582" stroke="none" stroke-width="0" opacity="1"/>
		<rect x="465" y="245" width="96" height="43" fill="#fddbc7" stroke="none" stroke-width="0" opacity="1"/>
		<rect x="465" y="220" width="96" height="68" fill="none" stroke="#d6604d" stroke-width="2" opacity="1"/>
		<line x1="465" y1="245" x2="561" y2="245" stroke="#d6604d" stroke-width="1"/>
	</g>
	<text x="493" y="237.75" fill="#000000" font-family="Verdana" font-size="12">EVENT</text>
	<text x="470" y="262.8" fill="#000000" font-family="Verdana" font-size="12">title</text>
	<line x1="470" y1="265" x2="494" y2="265" stroke="#000000" stroke-width="1"/>
	<text x="470" y="279.8" fill="#000000" font-family="Verdana" font-size="12">display_event</text>
</g>

<!-- Entity USER -->
<g>
	<g>
		<rect x="16" y="313" width="100" height="25" fill="#f4a582" stroke="none" stroke-width="0" opacity="1"/>
		<rect x="16" y="338" width="100" height="111" fill="#fddbc7" stroke="none" stroke-width="0" opacity="1"/>
		<rect x="16" y="313" width="100" height="136" fill="none" stroke="#d6604d" stroke-width="2" opacity="1"/>
		<line x1="16" y1="338" x2="116" y2="338" stroke="#d6604d" stroke-width="1"/>
	</g>
	<text x="49" y="330.75" fill="#000000" font-family="Verdana" font-size="12">USER</text>
	<text x="21" y="355.8" fill="#000000" font-family="Verdana" font-size="12">email</text>
	<line x1="21" y1="358" x2="55" y2="358" stroke="#000000" stroke-width="1"/>
	<text x="21" y="372.8" fill="#000000" font-family="Verdana" font-size="12">password</text>
	<text x="21" y="389.8" fill="#000000" font-family="Verdana" font-size="12">name</text>
	<text x="21" y="406.8" fill="#000000" font-family="Verdana" font-size="12">address</text>
	<text x="21" y="423.8" fill="#000000" font-family="Verdana" font-size="12">phone number</text>
	<text x="21" y="440.8" fill="#000000" font-family="Verdana" font-size="12">role</text>
</g>

<!-- Entity INVOICE -->
<g>
	<g>
		<rect x="294" y="330" width="114" height="25" fill="#f4a582" stroke="none" stroke-width="0" opacity="1"/>
		<rect x="294" y="355" width="114" height="77" fill="#fddbc7" stroke="none" stroke-width="0" opacity="1"/>
		<rect x="294" y="330" width="114" height="102" fill="none" stroke="#d6604d" stroke-width="2" opacity="1"/>
		<line x1="294" y1="355" x2="408" y2="355" stroke="#d6604d" stroke-width="1"/>
	</g>
	<text x="324" y="347.75" fill="#000000" font-family="Verdana" font-size="12">INVOICE</text>
	<text x="299" y="372.8" fill="#000000" font-family="Verdana" font-size="12">invoice reference</text>
	<line x1="299" y1="375" x2="403" y2="375" stroke="#000000" stroke-width="1"/>
	<text x="299" y="389.8" fill="#000000" font-family="Verdana" font-size="12">user_reference</text>
	<text x="299" y="406.8" fill="#000000" font-family="Verdana" font-size="12">process_status</text>
	<text x="299" y="423.8" fill="#000000" font-family="Verdana" font-size="12">issued_at</text>
</g>
</svg>